<svg width="578" height="569" viewBox="0 0 578 569" fill="none" xmlns="http://www.w3.org/2000/svg">
<path fill-rule="evenodd" clip-rule="evenodd" d="M271.5 569C421.445 569 543 441.625 543 284.5C543 253.229 538.185 223.136 529.29 194.992C558.422 178.353 578 147.416 578 112C578 58.9807 534.124 16 480 16C454.18 16 430.693 25.7812 413.188 41.7673C371.942 15.2737 323.423 0 271.5 0C121.555 0 0 127.375 0 284.5C0 441.625 121.555 569 271.5 569ZM413.188 41.7673C393.999 59.2919 382 84.2733 382 112C382 165.019 425.876 208 480 208C497.97 208 514.811 203.262 529.29 194.992C508.968 130.69 467.348 76.5558 413.188 41.7673Z" fill="#313B89"/>
</svg>
