<svg viewBox="0 0 90 90" fill="none" xmlns="http://www.w3.org/2000/svg">
<path fill-rule="evenodd" clip-rule="evenodd" d="M10.5139 31.3249C9.46335 41.0857 9.51018 52.3432 10.972 62.0644C11.7809 67.4434 16.1709 71.5671 21.5899 72.0381L27.2533 72.5304C39.0622 73.557 50.9379 73.557 62.7469 72.5304L68.4102 72.0381C73.8292 71.5671 78.2192 67.4434 79.0281 62.0644C80.49 52.3432 80.5369 41.0864 79.4863 31.3255C79.3505 30.1939 79.1978 29.0638 79.0281 27.9356C78.2192 22.5566 73.8292 18.433 68.4102 17.9619L62.7468 17.4696C50.9379 16.4431 39.0622 16.4431 27.2533 17.4696L21.5899 17.9619C16.1709 18.433 11.7809 22.5566 10.972 27.9356C10.8024 29.0636 10.6497 30.1935 10.5139 31.3249ZM27.7404 23.0735C39.2252 22.0751 50.7749 22.0751 62.2597 23.0735L67.9231 23.5658C70.7518 23.8117 73.0434 25.9642 73.4657 28.7721C73.5095 29.0637 73.5522 29.3554 73.5936 29.6472L52.7399 41.2327C47.9264 43.9068 42.0735 43.9068 37.26 41.2327L16.4065 29.6474C16.448 29.3555 16.4906 29.0637 16.5345 28.7721C16.9567 25.9642 19.2483 23.8117 22.077 23.5658L27.7404 23.0735ZM74.282 35.6996C75.0093 44.2037 74.7372 52.7719 73.4656 61.228C73.0434 64.0358 70.7518 66.1884 67.9231 66.4343L62.2597 66.9266C50.775 67.9249 39.2252 67.9249 27.7404 66.9266L22.077 66.4343C19.2483 66.1884 16.9567 64.0358 16.5345 61.228C15.2629 52.7719 14.9908 44.2038 15.7182 35.6997L34.5283 46.1498C41.0406 49.7678 48.9593 49.7678 55.4716 46.1498L74.282 35.6996Z" fill="white"/>
</svg>
