<svg viewBox="0 0 90 90" fill="none" xmlns="http://www.w3.org/2000/svg">
<path d="M27.3345 18.4036C39.0894 17.3817 50.9108 17.3817 62.6657 18.4036L68.329 18.8959C72.0992 19.2236 75.3281 21.4724 77.0012 24.689C77.2153 25.1006 77.0549 25.5988 76.6605 25.8429L53.1631 40.3889C48.1236 43.5086 41.7692 43.5741 36.6665 40.5588L13.0121 26.5813C12.63 26.3554 12.4546 25.8906 12.6268 25.4815C14.1574 21.8456 17.5985 19.2499 21.6711 18.8959L27.3345 18.4036Z" fill="white"/>
<path d="M12.6075 32.8758C12.0227 32.5302 11.2764 32.9021 11.2082 33.5781C10.2567 43.0117 10.487 52.5346 11.8991 61.925C12.6435 66.8755 16.6838 70.6706 21.6711 71.1041L27.3345 71.5964C39.0894 72.6183 50.9108 72.6183 62.6657 71.5964L68.329 71.1041C73.3163 70.6706 77.3566 66.8755 78.101 61.925C79.5543 52.261 79.7558 42.4565 78.7057 32.7536C78.6321 32.0729 77.8731 31.7078 77.291 32.0682L56.1239 45.1716C49.3057 49.3924 40.7085 49.481 33.8049 45.4015L12.6075 32.8758Z" fill="white"/>
</svg>
