<svg viewBox="0 0 150 150" fill="none" xmlns="http://www.w3.org/2000/svg">
<g clip-path="url(#clip0_427_166)">
<path d="M26.5625 1.20902e-05H123.438C126.927 -0.00336079 130.382 0.699013 133.606 2.06694C136.831 3.43486 139.76 5.44148 142.227 7.97195C144.695 10.5024 146.651 13.5071 147.985 16.8139C149.318 20.1208 150.003 23.665 150 27.2436V122.756C150.003 126.335 149.318 129.879 147.985 133.186C146.651 136.493 144.695 139.498 142.227 142.028C139.76 144.559 136.831 146.565 133.606 147.933C130.382 149.301 126.927 150.003 123.438 150H26.5625C23.0733 150.003 19.6178 149.301 16.3936 147.933C13.1694 146.565 10.2399 144.559 7.77265 142.028C5.30544 139.498 3.34899 136.493 2.01526 133.186C0.681538 129.879 -0.00327677 126.335 1.1788e-05 122.756V27.2436C-0.00327677 23.665 0.681538 20.1208 2.01526 16.8139C3.34899 13.5071 5.30544 10.5024 7.77265 7.97195C10.2399 5.44148 13.1694 3.43486 16.3936 2.06694C19.6178 0.699013 23.0733 -0.00336079 26.5625 1.20902e-05Z" fill="#F0F0F0"/>
<path d="M61.1591 103.017C61.1591 103.017 57.2352 105.299 63.9517 106.071C72.0885 106.999 76.2471 106.866 85.214 105.169C85.214 105.169 87.5714 106.647 90.8638 107.928C70.7625 116.543 45.3707 107.429 61.1591 103.017Z" fill="#5382A1"/>
<path d="M58.703 91.7749C58.703 91.7749 54.3019 95.0327 61.0234 95.7279C69.7154 96.6246 76.5797 96.698 88.4575 94.4108C88.4575 94.4108 90.1004 96.0763 92.6837 96.9872C68.38 104.094 41.3101 97.5476 58.703 91.7749Z" fill="#5382A1"/>
<path d="M79.4101 72.7045C84.363 78.4069 78.1088 83.5384 78.1088 83.5384C78.1088 83.5384 90.6851 77.0461 84.9094 68.9162C79.515 61.3346 75.3782 57.5675 97.773 44.5793C97.773 44.5793 62.6206 53.3588 79.4101 72.7045Z" fill="#E76F00"/>
<path d="M105.996 111.332C105.996 111.332 108.899 113.725 102.798 115.576C91.1949 119.091 54.5058 120.152 44.3138 115.716C40.65 114.122 47.5206 111.91 49.6819 111.446C51.9358 110.957 53.2239 111.048 53.2239 111.048C49.1494 108.178 26.888 116.684 41.9162 119.12C82.9003 125.767 116.626 116.128 105.996 111.332Z" fill="#5382A1"/>
<path d="M63.0462 80.1271C63.0462 80.1271 44.3838 84.5597 56.4374 86.1694C61.5268 86.8507 71.6724 86.6966 81.1227 85.9048C88.846 85.2533 96.6012 83.8681 96.6012 83.8681C96.6012 83.8681 93.8779 85.0343 91.9076 86.3797C72.9563 91.3639 36.3458 89.0452 46.8855 83.9469C55.7989 79.6383 63.0462 80.1271 63.0462 80.1271Z" fill="#5382A1"/>
<path d="M96.5242 98.8398C115.789 88.829 106.882 79.2088 100.665 80.5049C99.1407 80.822 98.4612 81.0968 98.4612 81.0968C98.4612 81.0968 99.0269 80.2107 100.107 79.8271C112.407 75.5029 121.866 92.5806 96.137 99.3444C96.137 99.3446 96.435 99.0781 96.5242 98.8398Z" fill="#5382A1"/>
<path d="M84.9094 23.6069C84.9094 23.6069 95.5786 34.2797 74.7901 50.6915C58.1199 63.8565 70.9888 71.3629 74.7832 79.9392C65.0525 71.1597 57.9115 63.4312 62.7022 56.2381C69.7339 45.6793 89.2142 40.56 84.9094 23.6069Z" fill="#E76F00"/>
<path d="M64.9392 125.967C83.4311 127.15 111.827 125.31 112.5 116.56C112.5 116.56 111.207 119.877 97.2174 122.511C81.4342 125.482 61.9678 125.135 50.4221 123.231C50.4224 123.231 52.7857 125.187 64.9392 125.967Z" fill="#5382A1"/>
</g>
<defs>
<clipPath id="clip0_427_166">
<rect width="150" height="150" fill="white"/>
</clipPath>
</defs>
</svg>
