<svg viewBox="0 0 90 90" fill="none" xmlns="http://www.w3.org/2000/svg">
<path fill-rule="evenodd" clip-rule="evenodd" d="M18.75 4.6875C13.0546 4.6875 8.4375 9.30456 8.4375 15C8.4375 20.6954 13.0546 25.3125 18.75 25.3125C24.4454 25.3125 29.0625 20.6954 29.0625 15C29.0625 9.30456 24.4454 4.6875 18.75 4.6875ZM14.0625 15C14.0625 12.4112 16.1612 10.3125 18.75 10.3125C21.3388 10.3125 23.4375 12.4112 23.4375 15C23.4375 17.5888 21.3388 19.6875 18.75 19.6875C16.1612 19.6875 14.0625 17.5888 14.0625 15Z" fill="white"/>
<path fill-rule="evenodd" clip-rule="evenodd" d="M8.4375 30C8.4375 28.4467 9.6967 27.1875 11.25 27.1875H26.25C27.8033 27.1875 29.0625 28.4467 29.0625 30V78.75C29.0625 80.3033 27.8033 81.5625 26.25 81.5625H11.25C9.6967 81.5625 8.4375 80.3033 8.4375 78.75V30ZM14.0625 32.8125V75.9375H23.4375V32.8125H14.0625Z" fill="white"/>
<path fill-rule="evenodd" clip-rule="evenodd" d="M34.6875 30C34.6875 28.4467 35.9467 27.1875 37.5 27.1875H52.5C54.0533 27.1875 55.3125 28.4467 55.3125 30V31.6276L56.9448 30.928C59.751 29.7254 62.7521 28.9712 65.7872 28.6952C76.1933 27.7492 85.3125 35.9264 85.3125 46.4259V78.75C85.3125 80.3033 84.0533 81.5625 82.5 81.5625H67.5C65.9467 81.5625 64.6875 80.3033 64.6875 78.75V52.5C64.6875 51.2568 64.1936 50.0645 63.3146 49.1854C62.4355 48.3064 61.2432 47.8125 60 47.8125C58.7568 47.8125 57.5645 48.3064 56.6854 49.1854C55.8064 50.0645 55.3125 51.2568 55.3125 52.5V78.75C55.3125 80.3033 54.0533 81.5625 52.5 81.5625H37.5C35.9467 81.5625 34.6875 80.3033 34.6875 78.75V30ZM40.3125 32.8125V75.9375H49.6875V52.5C49.6875 49.7649 50.774 47.1419 52.708 45.208C54.6419 43.274 57.2649 42.1875 60 42.1875C62.7351 42.1875 65.3581 43.274 67.292 45.208C69.226 47.1419 70.3125 49.7649 70.3125 52.5V75.9375H79.6875V46.4259C79.6875 39.2845 73.4589 33.646 66.2965 34.2971C63.8438 34.5201 61.4192 35.1303 59.1606 36.0982L53.6079 38.478C52.7389 38.8504 51.741 38.7613 50.9517 38.2408C50.1625 37.7204 49.6875 36.8383 49.6875 35.8929V32.8125H40.3125Z" fill="white"/>
</svg>
