<svg viewBox="0 0 90 90" fill="none" xmlns="http://www.w3.org/2000/svg">
<path d="M17.8125 7.03125C13.4115 7.03125 9.84375 10.599 9.84375 15C9.84375 19.401 13.4115 22.9688 17.8125 22.9688C22.2135 22.9688 25.7812 19.401 25.7812 15C25.7812 10.599 22.2135 7.03125 17.8125 7.03125Z" fill="white"/>
<path d="M10.3125 29.5312C10.0536 29.5312 9.84375 29.7411 9.84375 30V78.75C9.84375 79.0089 10.0536 79.2188 10.3125 79.2188H25.3125C25.5714 79.2188 25.7812 79.0089 25.7812 78.75V30C25.7812 29.7411 25.5714 29.5312 25.3125 29.5312H10.3125Z" fill="white"/>
<path d="M34.6875 29.5312C34.4286 29.5312 34.2188 29.7411 34.2188 30V78.75C34.2188 79.0089 34.4286 79.2188 34.6875 79.2188H49.6875C49.9464 79.2188 50.1562 79.0089 50.1562 78.75V52.5C50.1562 50.6352 50.897 48.8468 52.2157 47.5282C53.5343 46.2095 55.3227 45.4688 57.1875 45.4688C59.0523 45.4688 60.8407 46.2095 62.1593 47.5282C63.478 48.8468 64.2188 50.6352 64.2188 52.5V78.75C64.2188 79.0089 64.4286 79.2188 64.6875 79.2188H79.6875C79.9464 79.2188 80.1562 79.0089 80.1562 78.75V46.4259C80.1562 37.3256 72.2415 30.2062 63.1869 31.0294C60.3945 31.2832 57.6336 31.9774 55.0555 33.0823L50.1562 35.182V30C50.1562 29.7411 49.9464 29.5312 49.6875 29.5312H34.6875Z" fill="white"/>
</svg>
