<svg viewBox="0 0 90 90" fill="none" xmlns="http://www.w3.org/2000/svg">
<path fill-rule="evenodd" clip-rule="evenodd" d="M21.9009 36.9616C28.6033 51.5562 40.5302 63.1593 55.3568 69.4466L55.4036 69.4664L58.2679 70.7431C61.9153 72.3681 66.2024 71.214 68.5409 67.9774L73.3198 61.3634C73.6117 60.9594 73.5364 60.3976 73.1485 60.0847L64.8057 53.3542C64.391 53.0196 63.7812 53.0975 63.4639 53.5257L60.2169 57.9071C59.4283 58.9712 58.0042 59.3409 56.7976 58.7949C45.7111 53.7776 36.8022 44.8687 31.785 33.7822C31.2389 32.5756 31.6087 31.1515 32.6727 30.363L37.0542 27.116C37.4823 26.7987 37.5602 26.1889 37.2256 25.7741L30.4942 17.4302C30.1814 17.0424 29.6198 16.9671 29.2158 17.2587L22.566 22.0593C19.308 24.4113 18.1607 28.7344 19.8237 32.3924L21.8987 36.9567C21.8994 36.9584 21.9002 36.96 21.9009 36.9616ZM53.1371 74.6152C37.027 67.7767 24.0694 55.1654 16.7868 39.3038L16.7824 39.2943L14.703 34.7203C11.9314 28.6238 13.8436 21.4185 19.2735 17.4986L25.9234 12.698C28.7513 10.6565 32.6822 11.1837 34.8722 13.8983L41.6036 22.2422C43.9457 25.1454 43.4001 29.4144 40.4033 31.6353L37.8927 33.4958C42.1336 41.7248 48.855 48.4462 57.084 52.6872L58.9446 50.1765C61.1655 47.1797 65.4345 46.6342 68.3376 48.9762L76.6804 55.7067C79.3958 57.8974 79.9225 61.8298 77.8792 64.6577L73.1003 71.2718C69.2027 76.666 62.0576 78.5896 55.9787 75.8812L53.1371 74.6152Z" fill="white"/>
</svg>
