<svg fill="none" xmlns="http://www.w3.org/2000/svg">
<path d="M18.7508 36.9769C25.9373 52.629 38.7248 65.0734 54.6231 71.8197L57.1716 72.9552C63.0021 75.5529 69.8562 73.5793 73.4124 68.2787L76.7428 63.3148C77.8255 61.7009 77.4959 59.5272 75.9833 58.3069L64.6888 49.1952C63.0299 47.8568 60.5905 48.1686 59.3214 49.881L55.8274 54.5958C46.8619 50.1732 39.5829 42.8943 35.1604 33.9287L39.8751 30.4348C41.5876 29.1657 41.8993 26.7263 40.561 25.0673L31.449 13.7726C30.2289 12.2603 28.0558 11.9304 26.4419 13.0125L21.4437 16.3639C16.11 19.9403 14.1473 26.851 16.805 32.697L18.7479 36.9706L18.7508 36.9769Z" fill="white"/>
</svg>
