<svg viewBox="0 0 150 150" fill="none" xmlns="http://www.w3.org/2000/svg">
<path d="M26.5625 1.20902e-05H123.438C126.927 -0.00336079 130.382 0.699013 133.606 2.06694C136.831 3.43486 139.76 5.44148 142.227 7.97195C144.695 10.5024 146.651 13.5071 147.985 16.8139C149.318 20.1208 150.003 23.665 150 27.2436V122.756C150.003 126.335 149.318 129.879 147.985 133.186C146.651 136.493 144.695 139.498 142.227 142.028C139.76 144.559 136.831 146.565 133.606 147.933C130.382 149.301 126.927 150.003 123.438 150H26.5625C23.0733 150.003 19.6178 149.301 16.3936 147.933C13.1694 146.565 10.2399 144.559 7.77265 142.028C5.30544 139.498 3.34899 136.493 2.01526 133.186C0.681538 129.879 -0.00327677 126.335 1.1788e-05 122.756V27.2436C-0.00327677 23.665 0.681538 20.1208 2.01526 16.8139C3.34899 13.5071 5.30544 10.5024 7.77265 7.97195C10.2399 5.44148 13.1694 3.43486 16.3936 2.06694C19.6178 0.699013 23.0733 -0.00336079 26.5625 1.20902e-05Z" fill="#000B1D"/>
<g clip-path="url(#clip0_427_154)">
<path d="M116.101 81.8237C112.126 81.8447 108.671 82.811 105.779 84.2394C104.717 82.1178 103.656 80.2273 103.469 78.8409C103.261 77.2234 103.011 76.2362 103.261 74.3036C103.51 72.3711 104.634 69.6193 104.613 69.4093C104.592 69.1992 104.363 68.2119 102.074 68.1909C99.7852 68.1699 97.8082 68.6321 97.5792 69.2412C97.3503 69.8504 96.9133 71.2368 96.622 72.6652C96.2266 74.7658 92.0436 82.2648 89.6504 86.1929C88.8804 84.6595 88.2145 83.3151 88.0688 82.2438C87.8607 80.6264 87.611 79.6391 87.8607 77.7066C88.1105 75.774 89.2342 73.0223 89.2134 72.8122C89.1926 72.6022 88.9637 71.6149 86.6745 71.5939C84.3854 71.5729 82.4084 72.035 82.1795 72.6442C81.9506 73.2533 81.7008 74.6817 81.2222 76.0681C80.7435 77.4545 75.1871 89.974 73.7304 93.2089C72.9812 94.8684 72.3361 96.1917 71.8783 97.095C71.8783 97.095 71.8575 97.158 71.795 97.263C71.3996 98.0402 71.1707 98.4604 71.1707 98.4604C71.1707 98.4604 71.1707 98.4603 71.1707 98.4814C70.8585 99.0485 70.5256 99.5737 70.3591 99.5737C70.2342 99.5737 70.0053 98.0612 70.4007 96.0027C71.2331 91.6545 73.2101 84.8906 73.1893 84.6595C73.1893 84.5335 73.5639 83.3571 71.8991 82.748C70.2759 82.1388 69.6932 83.1471 69.5475 83.1471C69.4018 83.1471 69.2978 83.5042 69.2978 83.5042C69.2978 83.5042 71.1083 75.9001 65.8432 75.9001C62.5551 75.9001 58.0185 79.5341 55.7709 82.811C54.3558 83.5882 51.3383 85.2477 48.1127 87.0332C46.8848 87.7264 45.6154 88.4196 44.4292 89.0707C44.346 88.9867 44.2627 88.8817 44.1795 88.7977C37.8115 81.9287 26.0327 77.0764 26.5322 67.8548C26.7194 64.4939 27.864 55.6714 49.1532 44.9585C66.6756 36.241 80.6187 38.6567 83.0327 44.0132C86.4872 51.6593 75.5617 65.8593 57.4566 67.9179C50.5475 68.6951 46.9265 66.0063 46.0108 64.998C45.0535 63.9477 44.9078 63.8847 44.5541 64.0948C43.9714 64.4099 44.346 65.3551 44.5541 65.9013C45.0951 67.3297 47.3219 69.8504 51.0886 71.0897C54.4182 72.182 62.5135 72.7912 72.3153 68.9681C83.2824 64.683 91.8564 52.7726 89.3383 42.7949C86.8202 32.67 70.1718 29.3301 54.4182 34.9807C45.0535 38.3416 34.898 43.6351 27.5935 50.525C18.9155 58.7173 17.542 65.8383 18.1039 68.8211C20.1225 79.4081 34.5858 86.298 40.3711 91.4024C40.0798 91.5704 39.8093 91.7175 39.5803 91.8435C36.6877 93.2929 25.6581 99.1115 22.9111 105.266C19.7895 112.24 23.4106 117.24 25.8038 117.912C33.2331 119.991 40.8706 116.252 44.9703 110.077C49.0699 103.901 48.5705 95.8766 46.6767 92.2006C46.6559 92.1586 46.6351 92.1166 46.5935 92.0746C47.3427 91.6334 48.1127 91.1713 48.8618 90.7302C50.3394 89.8479 51.7961 89.0287 53.0447 88.3565C52.3372 90.3101 51.8169 92.6417 51.5672 96.0027C51.255 99.9518 52.8575 105.077 54.9593 107.094C55.8958 107.976 56.9987 107.997 57.7063 107.997C60.1619 107.997 61.2649 105.938 62.4927 103.502C63.9911 100.519 65.3438 97.053 65.3438 97.053C65.3438 97.053 63.6581 106.422 68.2364 106.422C69.9013 106.422 71.5869 104.237 72.3361 103.124C72.3361 103.145 72.3361 103.145 72.3361 103.145C72.3361 103.145 72.3777 103.082 72.461 102.935C72.6274 102.662 72.7315 102.493 72.7315 102.493C72.7315 102.493 72.7315 102.472 72.7315 102.451C73.3974 101.275 74.8958 98.6074 77.1225 94.1752C79.9944 88.4616 82.7622 81.3196 82.7622 81.3196C82.7622 81.3196 83.0119 83.0631 83.8651 85.9619C84.3646 87.6633 85.4051 89.5329 86.2375 91.3394C85.5716 92.2846 85.1554 92.8098 85.1554 92.8098C85.1554 92.8098 85.1554 92.8098 85.1762 92.8308C84.6351 93.545 84.0524 94.3222 83.4073 95.0784C81.1389 97.8092 78.4336 100.939 78.059 101.842C77.622 102.914 77.726 103.691 78.5584 104.321C79.1619 104.783 80.2441 104.846 81.347 104.783C83.3865 104.636 84.8224 104.132 85.53 103.817C86.6329 103.418 87.9232 102.809 89.1302 101.905C91.3569 100.246 92.7096 97.8722 92.5847 94.7423C92.5223 93.0198 91.9604 91.2974 91.2737 89.6799C91.4818 89.3858 91.6691 89.0917 91.8772 88.7977C95.3941 83.6092 98.1203 77.9166 98.1203 77.9166C98.1203 77.9166 98.37 79.6601 99.2233 82.5589C99.6395 84.0293 100.493 85.6258 101.242 87.1802C97.933 89.89 95.8936 93.0408 95.1652 95.0994C93.8542 98.9225 94.8739 100.645 96.8093 101.044C97.6833 101.233 98.9319 100.813 99.8476 100.414C101.013 100.036 102.386 99.3846 103.698 98.4183C105.924 96.7589 108.068 94.4482 107.943 91.3184C107.88 89.89 107.506 88.4826 106.986 87.1172C109.795 85.9409 113.416 85.2897 118.036 85.8358C127.942 87.0122 129.898 93.2509 129.523 95.8766C129.149 98.5024 127.068 99.9308 126.381 100.372C125.694 100.813 125.465 100.96 125.528 101.275C125.611 101.737 125.944 101.716 126.527 101.632C127.338 101.485 131.729 99.5106 131.917 94.6793C132.229 88.5036 126.402 81.7607 116.101 81.8237ZM39.6844 107.829C36.3963 111.442 31.818 112.807 29.841 111.652C27.7184 110.413 28.5508 105.077 32.588 101.254C35.0437 98.9225 38.2069 96.7589 40.3087 95.4355C40.7874 95.1414 41.4949 94.7213 42.3481 94.1962C42.4938 94.1121 42.5771 94.0701 42.5771 94.0701C42.7435 93.9651 42.91 93.8601 43.0765 93.755C44.5541 99.2166 43.1389 104.027 39.6844 107.829ZM63.6165 91.4024C62.4719 94.2172 60.0787 101.422 58.622 101.023C57.3733 100.687 56.6033 95.2254 58.3722 89.8269C59.2671 87.1172 61.1608 83.8823 62.2638 82.6219C64.0535 80.6054 66.0305 79.9332 66.5092 80.7524C67.1127 81.8237 64.324 89.6379 63.6165 91.4024ZM83.3657 100.939C82.887 101.191 82.4292 101.359 82.2211 101.233C82.0754 101.149 82.4292 100.813 82.4292 100.813C82.4292 100.813 84.9056 98.1243 85.8837 96.9059C86.4456 96.1917 87.1116 95.3515 87.8191 94.4062C87.8191 94.4902 87.8191 94.5953 87.8191 94.6793C87.8191 97.8932 84.7392 100.057 83.3657 100.939ZM98.599 97.4311C98.2452 97.179 98.3076 96.3388 99.4938 93.713C99.9516 92.6837 101.034 90.9613 102.886 89.3018C103.094 89.974 103.24 90.6252 103.219 91.2343C103.198 95.2885 100.326 96.8009 98.599 97.4311Z" fill="#CD6799"/>
</g>
<defs>
<clipPath id="clip0_427_154">
<rect width="114" height="86.25" fill="white" transform="translate(18 32.25)"/>
</clipPath>
</defs>
</svg>
